<?xml version="1.0" encoding="UTF-8"?>
<svg version="1.1" xmlns="http://www.w3.org/2000/svg" width="1100" height="1000">
<path d="M0 0 C283.47 0 566.94 0 859 0 C859 170.28 859 340.56 859 516 C575.53 516 292.06 516 0 516 C0 345.72 0 175.44 0 0 Z " fill="#B91251" transform="translate(121,159)"/>
<path d="M0 0 C57.89473684 0 57.89473684 0 70 10.78125 C83.07999161 24.5377929 83.74851065 44.07800713 83.35546875 61.99609375 C83.03164336 69.45810637 81.65796099 76.01362338 79 83 C78.71125 83.77988281 78.4225 84.55976562 78.125 85.36328125 C75.24002963 91.99613723 69.98312984 98.01124678 64 102 C64.61997828 107.56504309 65.9955017 112.56775203 67.75 117.875 C68.29829624 119.56985338 68.84514426 121.26517587 69.390625 122.9609375 C69.66326172 123.8075293 69.93589844 124.65412109 70.21679688 125.52636719 C71.36967845 129.16757547 72.43933332 132.83106543 73.5 136.5 C75.24898417 142.52820313 77.09431511 148.51952844 79 154.5 C80.98142876 160.73700459 82.93658622 166.98035307 84.8125 173.25 C85.01939453 173.92869141 85.22628906 174.60738281 85.43945312 175.30664062 C86.71245542 179.60570226 87.35521475 183.48650322 88 188 C79.09 188 70.18 188 61 188 C60.46890625 185.99679687 59.9378125 183.99359375 59.390625 181.9296875 C58.8613166 179.93692809 58.33155715 177.94428909 57.80175781 175.95166016 C57.440612 174.59240961 57.07991718 173.23303914 56.71972656 171.87353516 C54.24944194 162.5513158 51.6717025 153.26691927 49 144 C47.60994241 139.14778264 46.2289358 134.29301451 44.85302734 129.43676758 C44.44530112 128.00048179 44.03608089 126.56461939 43.62548828 125.12915039 C43.02267464 123.02072325 42.42488342 120.91092902 41.828125 118.80078125 C41.3007373 116.94706909 41.3007373 116.94706909 40.76269531 115.0559082 C40 112 40 112 40 109 C35.38 109 30.76 109 26 109 C26 135.07 26 161.14 26 188 C17.42 188 8.84 188 0 188 C0 125.96 0 63.92 0 0 Z " fill="#FDF9FB" transform="translate(345,428)"/>
<path d="M0 0 C54.23430736 0 54.23430736 0 66 9.9921875 C72.41680399 16.43405713 75.99034099 23.1884182 78 32 C78.17247757 32.62187698 78.34495514 33.24375397 78.5226593 33.88447571 C79.0043359 36.01921625 79.1332338 37.88997998 79.14526367 40.07495117 C79.15164352 40.86645065 79.15802338 41.65795013 79.16459656 42.47343445 C79.16570938 43.32138077 79.1668222 44.16932709 79.16796875 45.04296875 C79.17296135 46.36751823 79.17296135 46.36751823 79.17805481 47.71882629 C79.18311324 49.58736654 79.18546347 51.4559158 79.18530273 53.32446289 C79.18747876 56.15982304 79.205617 58.99478731 79.22460938 61.83007812 C79.22754575 63.65104035 79.22952891 65.4720044 79.23046875 67.29296875 C79.23765427 68.13079391 79.24483978 68.96861908 79.25224304 69.83183289 C79.20125871 83.20933674 75.05469127 95.05952371 66 105 C53.93052292 116.74723376 42.25650323 115 25 115 C25 139.09 25 163.18 25 188 C16.75 188 8.5 188 0 188 C0 125.96 0 63.92 0 0 Z " fill="#FEFCFD" transform="translate(218,428)"/>
<path d="M0 0 C0.91644287 0.00523682 1.83288574 0.01047363 2.77709961 0.01586914 C4.26113281 0.02070313 4.26113281 0.02070313 5.77514648 0.02563477 C6.81606445 0.03401367 7.85698242 0.04239258 8.92944336 0.05102539 C10.49662109 0.05779297 10.49662109 0.05779297 12.09545898 0.06469727 C14.68600996 0.07652627 17.27644895 0.0930085 19.86694336 0.11352539 C20.06073074 1.097211 20.25451813 2.08089661 20.45417786 3.09439087 C22.29155348 12.42030593 24.13015845 21.7459779 25.9699297 31.07142067 C26.91545507 35.86430771 27.86056549 40.65727576 28.8046875 45.45043945 C29.7179126 50.08666016 30.63228001 54.7226543 31.54739952 59.35850143 C31.89420935 61.11639967 32.24062566 62.87437561 32.58661842 64.63243484 C34.59064976 74.81378596 36.66493502 84.972888 38.86694336 95.11352539 C40.03966316 100.66039061 41.04258751 106.19029333 41.86694336 111.80102539 C42.55233069 116.38455315 43.52618186 120.67225292 44.86694336 125.11352539 C45.18707024 126.59991533 45.48985581 128.09008795 45.78051758 129.58251953 C45.95500427 130.47021027 46.12949097 131.357901 46.30926514 132.27249146 C46.49329895 133.21003265 46.67733276 134.14757385 46.86694336 135.11352539 C47.24738522 137.00627005 47.62909098 138.89876103 48.01196289 140.79101562 C49.10742055 146.2152819 50.19947714 151.64022617 51.2902832 157.06542969 C51.76062072 159.40189759 52.231986 161.73815883 52.7043457 164.07421875 C53.38884604 167.46048219 54.06966743 170.84746725 54.74975586 174.23461914 C54.96221954 175.2814537 55.17468323 176.32828827 55.39358521 177.40684509 C55.58733734 178.37537918 55.78108948 179.34391327 55.98071289 180.34179688 C56.15232941 181.19321762 56.32394592 182.04463837 56.50076294 182.92185974 C56.86694336 185.11352539 56.86694336 185.11352539 56.86694336 188.11352539 C48.28694336 188.11352539 39.70694336 188.11352539 30.86694336 188.11352539 C30.00942533 183.06029413 29.15390457 178.00680847 28.3034668 172.95239258 C28.01362526 171.2334442 27.72261904 169.51469177 27.43041992 167.79614258 C27.01035291 165.32431969 26.59449477 162.85181977 26.17944336 160.37915039 C25.98257935 159.22893402 25.98257935 159.22893402 25.78173828 158.05548096 C25.21752952 154.67164741 24.86694336 151.55608362 24.86694336 148.11352539 C13.97694336 148.11352539 3.08694336 148.11352539 -8.13305664 148.11352539 C-8.46305664 152.73352539 -8.79305664 157.35352539 -9.13305664 162.11352539 C-9.7333458 165.65523141 -10.36408256 169.11413607 -11.13305664 172.61352539 C-11.48798792 174.29044707 -11.84217405 175.96752667 -12.19555664 177.64477539 C-12.3515332 178.36213867 -12.50750977 179.07950195 -12.66821289 179.81860352 C-13.22561352 182.57047635 -13.67146423 185.34397091 -14.13305664 188.11352539 C-22.38305664 188.11352539 -30.63305664 188.11352539 -39.13305664 188.11352539 C-39.13305664 183.27966831 -39.04019205 179.76615247 -38.13916016 175.1940918 C-37.92215958 174.0766861 -37.705159 172.9592804 -37.48158264 171.80801392 C-37.24410812 170.62234833 -37.00663361 169.43668274 -36.76196289 168.21508789 C-36.52017807 166.98438568 -36.27839325 165.75368347 -36.02928162 164.48568726 C-35.51876201 161.89464111 -35.0057569 159.30424916 -34.48828125 156.71459961 C-33.82419715 153.39029081 -33.1695088 150.0642165 -32.51785374 146.73745155 C-31.89504906 143.5625064 -31.26587912 140.38882719 -30.63696289 137.21508789 C-30.4015126 136.01727692 -30.16606232 134.81946594 -29.92347717 133.58535767 C-29.59324806 131.93761856 -29.59324806 131.93761856 -29.25634766 130.2565918 C-29.06315445 129.28509186 -28.86996124 128.31359192 -28.6709137 127.31265259 C-28.13305664 125.11352539 -28.13305664 125.11352539 -27.13305664 124.11352539 C-25.51627351 117.89625933 -24.67682373 111.44802169 -23.63305664 105.11352539 C-20.93048468 88.71287063 -20.93048468 88.71287063 -19.21069336 83.10693359 C-17.87947367 78.46327207 -17.14500049 73.74209042 -16.36352539 68.98071289 C-14.20966243 56.25037793 -11.72710487 43.59291271 -9.18652344 30.93481445 C-8.43126703 27.16724214 -7.68335607 23.39825554 -6.93579102 19.62915039 C-6.45640764 17.23062604 -5.9766066 14.83218512 -5.49633789 12.43383789 C-5.27343582 11.30809357 -5.05053375 10.18234924 -4.82087708 9.02249146 C-4.6136351 7.99566254 -4.40639313 6.96883362 -4.19287109 5.91088867 C-4.01174271 5.0054129 -3.83061432 4.09993713 -3.64399719 3.16702271 C-2.96023535 0.41894741 -2.85608089 0.15200614 0 0 Z " fill="#FDFBFC" transform="translate(704.133056640625,427.886474609375)"/>
<path d="M0 0 C10.13469965 6.4786031 18.54639775 15.92831633 21.62207031 27.77978516 C23.02101851 35.99815397 22.24099144 44.75809275 22 53 C13.42 53 4.84 53 -4 53 C-4.3125 44.875 -4.3125 44.875 -4.38793945 42.35107422 C-4.62425514 37.5316141 -5.57871898 34.27132148 -8 30 C-8 29.34 -8 28.68 -8 28 C-14.01998557 24.88621436 -19.26999334 24.29936881 -26 25 C-30.46052918 27.41611997 -32.19525795 30.32979007 -34 35 C-34.46477457 39.15089201 -34.46414277 43.26427381 -34.4375 47.4375 C-34.45748047 48.54416016 -34.47746094 49.65082031 -34.49804688 50.79101562 C-34.49410841 57.38006984 -34.23263943 61.81689711 -30 67 C-27.56102991 68.61135793 -25.50284698 69.77381257 -22.875 70.9375 C-21.83351807 71.43262085 -21.83351807 71.43262085 -20.77099609 71.93774414 C-16.98776883 73.71647591 -13.15645608 75.36352241 -9.296875 76.96875 C2.19221725 81.78097279 12.73050936 86.98556134 18 99 C25.53274999 119.81778179 24.45218313 145.68800534 15.73046875 165.94921875 C14.61018296 168.10087877 13.4144908 170.03318422 12 172 C11.278125 173.051875 10.55625 174.10375 9.8125 175.1875 C1.3305796 183.6694204 -9.3007165 187.01117589 -21.125 187.375 C-32.28711613 187.02572909 -40.6278347 182.89463949 -48.8125 175.4375 C-53.16511499 170.58744329 -56.39818283 165.96538309 -59 160 C-59.53109375 158.82050781 -60.0621875 157.64101563 -60.609375 156.42578125 C-62.50025796 151.31831935 -62.33106046 146.37991758 -62.1875 141 C-62.125625 137.7 -62.06375 134.4 -62 131 C-53.75 131 -45.5 131 -37 131 C-36.938125 133.10375 -36.87625 135.2075 -36.8125 137.375 C-36.3420311 144.09793244 -34.94838122 149.47683089 -31 155 C-27.38079729 157.41280181 -24.73646788 157.26353585 -20.5625 157.1875 C-19.24378906 157.18105469 -17.92507813 157.17460938 -16.56640625 157.16796875 C-12.6897458 156.99548646 -12.6897458 156.99548646 -9 156 C-7.76603959 154.2857711 -7.76603959 154.2857711 -7 152 C-6.65888184 151.10990234 -6.31776367 150.21980469 -5.96630859 149.30273438 C-4.36759262 143.83850253 -4.6280898 138.28050295 -4.62939453 132.63232422 C-4.62501108 130.50537604 -4.58860683 128.38048965 -4.55078125 126.25390625 C-4.54491352 124.88802785 -4.54094383 123.52213971 -4.5390625 122.15625 C-4.52673584 120.31256836 -4.52673584 120.31256836 -4.51416016 118.43164062 C-5.09581488 114.32322918 -6.3991977 112.19986678 -9 109 C-11.44367168 107.49134823 -13.65867183 106.29109767 -16.25 105.125 C-17.68236962 104.44287199 -19.11465892 103.76057532 -20.546875 103.078125 C-21.28099609 102.73587891 -22.01511719 102.39363281 -22.77148438 102.04101562 C-51.49021203 88.62551883 -51.49021203 88.62551883 -58.140625 71.8828125 C-60.58216697 63.69254899 -61.31748747 55.90091746 -61.25 47.375 C-61.25773438 46.39015625 -61.26546875 45.4053125 -61.2734375 44.390625 C-61.25788394 38.55804066 -60.68342775 33.58537279 -59 28 C-58.71640625 27.05253906 -58.4328125 26.10507812 -58.140625 25.12890625 C-53.96803069 13.10524634 -47.4116931 4.23301981 -36.125 -1.9375 C-25.11312629 -6.56279327 -10.49185444 -5.43738442 0 0 Z " fill="#FDFAFB" transform="translate(860,431)"/>
<path d="M0 0 C9.24 0 18.48 0 28 0 C28.31453125 2.42988281 28.6290625 4.85976563 28.953125 7.36328125 C31.01081271 23.20224811 33.08527704 39.03419208 35.47509766 54.82714844 C36.44548889 61.24245853 37.38382411 67.66116537 38.2890625 74.0859375 C38.45532135 75.26326195 38.45532135 75.26326195 38.62493896 76.46437073 C39.0657715 79.58773531 39.50647337 82.71110428 39.94140625 85.83529663 C41.25160015 95.47009984 41.25160015 95.47009984 43.0234375 105.02734375 C44.4962828 111.93867405 45.18214417 118.98732126 46 126 C46.16081055 124.85337891 46.32162109 123.70675781 46.48730469 122.52539062 C47.23774336 117.18305576 47.99284578 111.84138697 48.75 106.5 C48.95441711 105.05741821 48.95441711 105.05741821 49.16296387 103.58569336 C50.86644379 91.59355622 52.66143568 79.63464318 54.73681641 67.70068359 C55.86515666 61.11208975 56.67952011 54.52626485 57.35253906 47.87695312 C57.81173129 43.40858033 58.53002995 39.11304365 59.50390625 34.734375 C60.19475641 30.92653947 60.54886819 27.09881154 60.9375 23.25 C61.74503103 15.31895091 63.18045914 7.77440185 65 0 C73.91 0 82.82 0 92 0 C91.34 3.96 90.68 7.92 90 12 C89.55720703 14.76117188 89.55720703 14.76117188 89.10546875 17.578125 C87.28272208 28.89380764 85.19929789 40.10967039 82.79248047 51.31567383 C81.28614004 58.40553952 80.02816346 65.50216845 78.98803711 72.67504883 C78.46490367 76.24945317 77.85527795 79.76032067 77.04296875 83.28125 C75.5329998 89.86329347 74.56060538 96.53900759 73.5 103.20507812 C72.70741766 108.08750917 71.82676335 112.853823 70.56201172 117.64013672 C69.28715252 122.99321622 68.39038519 128.43695927 67.39758301 133.84844971 C66.75659704 137.31719339 66.09207546 140.78138656 65.4296875 144.24609375 C65.04100627 146.29214225 64.65300311 148.33831838 64.26513672 150.38452148 C64.00262207 151.7659268 63.73892884 153.1471086 63.47412109 154.52807617 C61.6848675 163.61036841 61.6848675 163.61036841 60.5078125 172.78515625 C60 177 60 177 57 188 C49.41 188 41.82 188 34 188 C33.51080078 185.15568359 33.51080078 185.15568359 33.01171875 182.25390625 C29.79551308 163.49714028 29.79551308 163.49714028 26.49365234 144.75537109 C26.09716393 142.54233041 25.70194097 140.32906302 25.30712891 138.11572266 C24.63747221 134.36362305 23.96388206 130.61224298 23.28829956 126.86120605 C23.01376563 125.33429224 22.7402594 123.80719328 22.46780396 122.27990723 C22.08305038 120.12486366 21.69433753 117.97056913 21.3046875 115.81640625 C20.9641333 113.92063843 20.9641333 113.92063843 20.61669922 111.98657227 C20.15193762 109.08962621 20.15193762 109.08962621 19 107 C18.51027359 104.0852428 18.05578003 101.17349277 17.625 98.25 C16.72964608 92.3495345 15.7433944 86.514308 14.4375 80.6875 C13.16337906 75.0004081 12.26742541 69.32656037 11.52734375 63.546875 C10.98527675 59.90097253 10.27511432 56.31816729 9.53735352 52.70800781 C8.40781305 47.01565761 7.47498643 41.28683446 6.5 35.56640625 C4.79604412 25.64885052 2.76400131 15.8267584 0.5859375 6.00390625 C0 3 0 3 0 0 Z " fill="#FEFBFC" transform="translate(548,428)"/>
<path d="M0 0 C8.25 0 16.5 0 25 0 C25 62.04 25 124.08 25 188 C16.75 188 8.5 188 0 188 C0 125.96 0 63.92 0 0 Z " fill="#FEFDFD" transform="translate(478,428)"/>
<path d="M0 0 C20 0 20 0 28 4 C31.79183136 7.98628425 33.11037637 11.08553273 33.17700195 16.52807617 C33.19625481 17.900467 33.19625481 17.900467 33.21589661 19.30058289 C33.22328354 20.28807022 33.23067047 21.27555756 33.23828125 22.29296875 C33.246353 23.31296463 33.25442474 24.33296051 33.26274109 25.38386536 C33.27657683 27.54503686 33.28730126 29.70623016 33.29516602 31.86743164 C33.31234332 35.15749098 33.35623069 38.44653611 33.40039062 41.73632812 C33.41052104 43.83853429 33.41903605 45.94074899 33.42578125 48.04296875 C33.44328934 49.02033493 33.46079742 49.99770111 33.47883606 51.00468445 C33.45978282 57.06594362 32.7155228 62.04475882 29 67 C20.31375483 73.96569632 11.12365761 72 0 72 C0 48.24 0 24.48 0 0 Z " fill="#FDF8FA" transform="translate(429,329)"/>
<path d="M0 0 C19 0 19 0 26 4 C32.23864837 11.15045082 31.21343788 20.83489701 31.25 29.6875 C31.270625 30.91662109 31.29125 32.14574219 31.3125 33.41210938 C31.34893235 41.95094154 30.68475978 49.49343894 26.25 56.9375 C18.30287636 64.22236334 10.80952261 62 0 62 C0 41.54 0 21.08 0 0 Z " fill="#BB1956" transform="translate(243,455)"/>
<path d="M0 0 C21.632 0 21.632 0 26.64453125 4.46484375 C31.93633454 11.13711747 31.24679952 17.34224009 31.29516602 25.62475586 C31.30664767 26.99107247 31.32703916 28.35734557 31.35668945 29.72338867 C31.53277982 37.85010646 31.57756596 45.01512106 27 52 C19.61507593 59.16113849 10.40239583 56 0 56 C0 37.52 0 19.04 0 0 Z " fill="#B91352" transform="translate(371,455)"/>
<path d="M0 0 C10.23 0 20.46 0 31 0 C31 3.3 31 6.6 31 10 C24.07 10 17.14 10 10 10 C10 16.93 10 23.86 10 31 C15.94 31 21.88 31 28 31 C28 34.3 28 37.6 28 41 C22.39 41 16.78 41 11 41 C11 47.6 11 54.2 11 61 C17.6 61 24.2 61 31 61 C31 64.63 31 68.26 31 72 C20.77 72 10.54 72 0 72 C0 48.24 0 24.48 0 0 Z " fill="#FBF2F5" transform="translate(474,329)"/>
<path d="M0 0 C10.23 0 20.46 0 31 0 C31 3.3 31 6.6 31 10 C24.07 10 17.14 10 10 10 C10 16.93 10 23.86 10 31 C15.94 31 21.88 31 28 31 C28 33.97 28 36.94 28 40 C22.06 40 16.12 40 10 40 C10 47.26 10 54.52 10 62 C16.6 62 23.2 62 30 62 C30 65.3 30 68.6 30 72 C20.1 72 10.2 72 0 72 C0 48.24 0 24.48 0 0 Z " fill="#FDF9FA" transform="translate(368,329)"/>
<path d="M0 0 C3.63 0 7.26 0 11 0 C13.31 14.52 15.62 29.04 18 44 C18.33 44 18.66 44 19 44 C20.50800337 37.58448566 21.61960076 31.21622931 22.5 24.6875 C22.75684909 22.84101157 23.01465686 20.99465622 23.2734375 19.1484375 C23.39686523 18.26639648 23.52029297 17.38435547 23.64746094 16.47558594 C25.59293988 2.81412024 25.59293988 2.81412024 27 0 C30.63 0 34.26 0 38 0 C37.24899926 8.13584139 37.24899926 8.13584139 36.06396484 12.24853516 C35.08134568 15.71318088 34.28443315 19.14896449 33.5625 22.67578125 C33.17964844 24.53686523 33.17964844 24.53686523 32.7890625 26.43554688 C32.52867187 27.71494141 32.26828125 28.99433594 32 30.3125 C31.73960937 31.58029297 31.47921875 32.84808594 31.2109375 34.15429688 C30.46971693 37.76868302 29.73348177 41.38403622 29 45 C28.80929932 45.93884033 28.61859863 46.87768066 28.42211914 47.8449707 C27.22331233 53.78755384 26.11387703 59.74357123 25.05664062 65.71289062 C24.11048192 70.88951808 24.11048192 70.88951808 23 72 C21.50261876 72.0979057 20.00057108 72.12974864 18.5 72.125 C17.6853125 72.12757813 16.870625 72.13015625 16.03125 72.1328125 C14 72 14 72 13 71 C12.52135639 68.57350827 12.09284185 66.15440491 11.69140625 63.71484375 C9.9711606 53.62320677 7.96412708 43.5963185 5.9375 33.5625 C5.58249796 31.79756311 5.2276796 30.03258926 4.87304688 28.26757812 C4.70068512 27.41038177 4.52832336 26.55318542 4.35073853 25.67001343 C4.01458397 23.99803555 3.67862085 22.32601917 3.34286499 20.65396118 C2.67496137 17.3319936 2.00242473 14.01159928 1.30908203 10.69482422 C1.12587402 9.81455566 0.94266602 8.93428711 0.75390625 8.02734375 C0.52876343 6.96954712 0.52876343 6.96954712 0.29907227 5.89038086 C0 4 0 4 0 0 Z " fill="#FCF5F7" transform="translate(219,329)"/>
<path d="M0 0 C3.63 0 7.26 0 11 0 C11 20.13 11 40.26 11 61 C17.6 61 24.2 61 31 61 C31 64.63 31 68.26 31 72 C20.77 72 10.54 72 0 72 C0 48.24 0 24.48 0 0 Z " fill="#FAEEF3" transform="translate(328,329)"/>
<path d="M0 0 C3.63 0 7.26 0 11 0 C11 20.13 11 40.26 11 61 C17.6 61 24.2 61 31 61 C31 64.63 31 68.26 31 72 C20.77 72 10.54 72 0 72 C0 48.24 0 24.48 0 0 Z " fill="#FAEEF2" transform="translate(288,329)"/>
<path d="M0 0 C0.88236328 -0.02900391 1.76472656 -0.05800781 2.67382812 -0.08789062 C8.79298198 -0.14668516 13.32900538 0.84441293 18.4375 4.3125 C21.89944942 7.99082126 22.00136563 12.00125757 21.86328125 16.86328125 C21.15941219 20.9121427 19.4907304 22.61429639 16.4375 25.3125 C15.4475 25.3125 14.4575 25.3125 13.4375 25.3125 C13.71013672 25.81177002 13.98277344 26.31104004 14.26367188 26.82543945 C15.49476849 29.08850018 16.71621213 31.35663199 17.9375 33.625 C18.36675781 34.41068359 18.79601562 35.19636719 19.23828125 36.00585938 C19.84736328 37.1418457 19.84736328 37.1418457 20.46875 38.30078125 C20.84580078 38.99727783 21.22285156 39.69377441 21.61132812 40.41137695 C22.4375 42.3125 22.4375 42.3125 22.4375 45.3125 C19.4675 45.3125 16.4975 45.3125 13.4375 45.3125 C12.09930502 42.6898768 10.7667849 40.06463401 9.4375 37.4375 C9.0559375 36.69113281 8.674375 35.94476562 8.28125 35.17578125 C7.9203125 34.46035156 7.559375 33.74492188 7.1875 33.0078125 C6.85234375 32.34797363 6.5171875 31.68813477 6.171875 31.00830078 C5.4375 29.3125 5.4375 29.3125 5.4375 27.3125 C3.1275 27.3125 0.8175 27.3125 -1.5625 27.3125 C-1.5625 33.2525 -1.5625 39.1925 -1.5625 45.3125 C-4.5325 45.3125 -7.5025 45.3125 -10.5625 45.3125 C-10.58714455 39.06453746 -10.60533343 32.81660297 -10.61743164 26.56860352 C-10.62247298 24.44131986 -10.62930591 22.31403969 -10.63793945 20.18676758 C-10.65001379 17.13622174 -10.65573014 14.08572155 -10.66015625 11.03515625 C-10.66531754 10.07787125 -10.67047882 9.12058624 -10.67579651 8.1342926 C-10.67587204 7.25345505 -10.67594757 6.37261749 -10.67602539 5.46508789 C-10.678246 4.68565323 -10.68046661 3.90621857 -10.68275452 3.10316467 C-10.36611623 -1.61177673 -3.55813355 0.03782566 0 0 Z M-1.5625 8.3125 C-1.5625 12.2725 -1.5625 16.2325 -1.5625 20.3125 C0.78875 20.374375 0.78875 20.374375 3.1875 20.4375 C4.06921875 20.46070313 4.9509375 20.48390625 5.859375 20.5078125 C8.61585022 20.29898862 10.17433764 19.89109406 12.4375 18.3125 C13.52083333 14.89583333 13.52083333 14.89583333 13.4375 11.3125 C12.40143503 9.47301796 12.40143503 9.47301796 10.4375 8.3125 C7.46557238 7.94930691 7.46557238 7.94930691 4.25 8.125 C1.3728125 8.2178125 1.3728125 8.2178125 -1.5625 8.3125 Z " fill="#B91251" transform="translate(653.5625,782.6875)"/>
<path d="M0 0 C0.84304688 -0.020625 1.68609375 -0.04125 2.5546875 -0.0625 C8.11793834 -0.09705435 11.95695085 0.60377227 16.875 3.25 C21.80823702 8.18323702 23.11351549 13.64044313 23.20458984 20.41699219 C23.19613037 21.50995605 23.19613037 21.50995605 23.1875 22.625 C23.17904053 23.75663574 23.17904053 23.75663574 23.17041016 24.91113281 C23.0389328 30.91743492 22.78333007 36.18655899 18.41015625 40.79296875 C14.44232644 44.2563312 12.01703982 45.3772531 6.8671875 45.34765625 C5.88105469 45.34443359 4.89492188 45.34121094 3.87890625 45.33789062 C2.84636719 45.32951172 1.81382812 45.32113281 0.75 45.3125 C-0.81041016 45.30573242 -0.81041016 45.30573242 -2.40234375 45.29882812 C-4.97661962 45.28701952 -7.55078146 45.27055075 -10.125 45.25 C-10.15027124 39.00204325 -10.16783344 32.75409959 -10.17993164 26.50610352 C-10.18497298 24.37881986 -10.19180591 22.25153969 -10.20043945 20.12426758 C-10.21251379 17.07372174 -10.21823014 14.02322155 -10.22265625 10.97265625 C-10.22781754 10.01537125 -10.23297882 9.05808624 -10.23829651 8.0717926 C-10.23837204 7.19095505 -10.23844757 6.31011749 -10.23852539 5.40258789 C-10.240746 4.62315323 -10.24296661 3.84371857 -10.24525452 3.04066467 C-9.93316981 -1.60647101 -3.51805696 0.02094082 0 0 Z M-1.125 8.25 C-1.125 17.82 -1.125 27.39 -1.125 37.25 C8.95049967 38.26695036 8.95049967 38.26695036 12.875 35.25 C14.25384724 31.11345828 14.17841476 27.20916089 14.25 22.875 C14.28738281 22.02421875 14.32476562 21.1734375 14.36328125 20.296875 C14.42235489 16.08295566 14.21670211 13.80825407 11.9765625 10.1484375 C8.05955823 7.37990303 8.05955823 7.37990303 -1.125 8.25 Z " fill="#B91251" transform="translate(487.125,782.75)"/>
<path d="M0 0 C20 0 20 0 28 4 C32.73366295 9.7955589 32.58123668 15.28756932 32.4375 22.5625 C32.44458984 23.57763672 32.45167969 24.59277344 32.45898438 25.63867188 C32.41222781 31.14515709 32.1598457 35.28675294 29 40 C20.05037468 48.27840342 14.5397553 45 0 45 C0 30.15 0 15.3 0 0 Z M8 8 C8 17.57 8 27.14 8 37 C11.96 37 15.92 37 20 37 C24.49119654 32.50880346 24.20923509 28.65820638 24.25 22.625 C24.270625 21.86960937 24.29125 21.11421875 24.3125 20.3359375 C24.34473434 15.72642635 23.98163536 12.74875514 21 9 C17.73289481 7.18010841 17.73289481 7.18010841 8 8 Z " fill="#B91251" transform="translate(683,783)"/>
<path d="M0 0 C1.20970459 0.00523682 2.41940918 0.01047363 3.66577148 0.01586914 C4.97094727 0.0190918 6.27612305 0.02231445 7.62084961 0.02563477 C9.00952213 0.03399138 10.39819401 0.04245634 11.78686523 0.05102539 C13.17944179 0.05603873 14.57202005 0.06060193 15.96459961 0.06469727 C19.38456394 0.07653105 22.80444367 0.09301659 26.22436523 0.11352539 C26.22436523 2.75352539 26.22436523 5.39352539 26.22436523 8.11352539 C19.29436523 8.11352539 12.36436523 8.11352539 5.22436523 8.11352539 C5.22436523 11.74352539 5.22436523 15.37352539 5.22436523 19.11352539 C11.16436523 19.11352539 17.10436523 19.11352539 23.22436523 19.11352539 C23.22436523 21.42352539 23.22436523 23.73352539 23.22436523 26.11352539 C17.28436523 26.11352539 11.34436523 26.11352539 5.22436523 26.11352539 C5.22436523 29.74352539 5.22436523 33.37352539 5.22436523 37.11352539 C12.15436523 37.11352539 19.08436523 37.11352539 26.22436523 37.11352539 C26.22436523 39.75352539 26.22436523 42.39352539 26.22436523 45.11352539 C16.32436523 45.11352539 6.42436523 45.11352539 -3.77563477 45.11352539 C-3.7985399 38.86551453 -3.81846816 32.61764824 -3.83056641 26.36962891 C-3.83560775 24.24234525 -3.84244068 22.11506508 -3.85107422 19.98779297 C-3.86314856 16.93724713 -3.86886491 13.88674694 -3.87329102 10.83618164 C-3.8784523 9.87889664 -3.88361359 8.92161163 -3.88893127 7.93531799 C-3.88900681 7.05448044 -3.88908234 6.17364288 -3.88916016 5.26611328 C-3.89138077 4.48667862 -3.89360138 3.70724396 -3.89588928 2.90419006 C-3.69384294 -0.10440585 -3.035673 0.12416114 0 0 Z " fill="#B91251" transform="translate(842.775634765625,782.886474609375)"/>
<path d="M0 0 C1.25554688 -0.00128906 2.51109375 -0.00257813 3.8046875 -0.00390625 C4.46178711 -0.00181152 5.11888672 0.0002832 5.79589844 0.00244141 C7.80411335 0.00779016 9.81210459 0.00249559 11.8203125 -0.00390625 C13.07585938 -0.00261719 14.33140625 -0.00132812 15.625 0 C16.78644531 0.00112793 17.94789063 0.00225586 19.14453125 0.00341797 C21.8125 0.1328125 21.8125 0.1328125 22.8125 1.1328125 C22.8125 3.4428125 22.8125 5.7528125 22.8125 8.1328125 C12.4175 8.6278125 12.4175 8.6278125 1.8125 9.1328125 C1.8125 12.1028125 1.8125 15.0728125 1.8125 18.1328125 C7.7525 18.4628125 13.6925 18.7928125 19.8125 19.1328125 C19.8125 21.4428125 19.8125 23.7528125 19.8125 26.1328125 C13.8725 26.1328125 7.9325 26.1328125 1.8125 26.1328125 C1.8125 29.7628125 1.8125 33.3928125 1.8125 37.1328125 C3.96072266 37.11541016 3.96072266 37.11541016 6.15234375 37.09765625 C8.01822787 37.08827995 9.88411339 37.07917958 11.75 37.0703125 C12.69552734 37.06193359 13.64105469 37.05355469 14.61523438 37.04492188 C15.96391602 37.04008789 15.96391602 37.04008789 17.33984375 37.03515625 C18.17249756 37.02991943 19.00515137 37.02468262 19.86303711 37.01928711 C21.8125 37.1328125 21.8125 37.1328125 22.8125 38.1328125 C22.8125 40.4428125 22.8125 42.7528125 22.8125 45.1328125 C12.9125 45.1328125 3.0125 45.1328125 -7.1875 45.1328125 C-7.21040513 38.88480164 -7.23033339 32.63693535 -7.24243164 26.38891602 C-7.24747298 24.26163236 -7.25430591 22.13435219 -7.26293945 20.00708008 C-7.27501379 16.95653424 -7.28073014 13.90603405 -7.28515625 10.85546875 C-7.29031754 9.89818375 -7.29547882 8.94089874 -7.30079651 7.9546051 C-7.30087204 7.07376755 -7.30094757 6.19292999 -7.30102539 5.28540039 C-7.303246 4.50596573 -7.30546661 3.72653107 -7.30775452 2.92347717 C-7.02969317 -1.21702946 -3.34804222 0.00325143 0 0 Z " fill="#B91251" transform="translate(730.1875,782.8671875)"/>
<path d="M0 0 C6.93 0 13.86 0 21 0 C22.23628756 12.44014362 23.25489815 24.50999048 23 37 C14.75 37 6.5 37 -2 37 C-1.855625 33.1225 -1.71125 29.245 -1.5625 25.25 C-1.51939697 24.05407227 -1.47629395 22.85814453 -1.43188477 21.62597656 C-1.15210522 14.39311351 -0.64796891 7.20933482 0 0 Z " fill="#FCF5F8" transform="translate(480,265)"/>
<path d="M0 0 C9.57 0 19.14 0 29 0 C30 6 30 6 29 8 C22.4 8 15.8 8 9 8 C8.67 11.3 8.34 14.6 8 18 C13.94 18 19.88 18 26 18 C26 20.64 26 23.28 26 26 C20.06 26 14.12 26 8 26 C8 29.63 8 33.26 8 37 C14.93 37 21.86 37 29 37 C30 43 30 43 29 45 C25.03069011 45.02465881 21.06140966 45.04284023 17.09204102 45.05493164 C15.74079614 45.05997057 14.38955674 45.06680177 13.03833008 45.07543945 C11.09979566 45.08752419 9.161222 45.09269828 7.22265625 45.09765625 C5.47094116 45.10551147 5.47094116 45.10551147 3.68383789 45.11352539 C1 45 1 45 0 44 C-0.0927833 42.61839885 -0.11747043 41.23211962 -0.11352539 39.84741211 C-0.11341209 38.52615578 -0.11341209 38.52615578 -0.11329651 37.1782074 C-0.10555458 35.74227989 -0.10555458 35.74227989 -0.09765625 34.27734375 C-0.0962413 33.30213272 -0.09482635 32.32692169 -0.09336853 31.32215881 C-0.08775133 28.19390857 -0.07519593 25.06572877 -0.0625 21.9375 C-0.05748722 19.82226666 -0.05292393 17.70703219 -0.04882812 15.59179688 C-0.03862531 10.39448199 -0.01905331 5.19732025 0 0 Z " fill="#B91251" transform="translate(711,718)"/>
<path d="M0 0 C2.64 0 5.28 0 8 0 C8 6.27 8 12.54 8 19 C13.28 19 18.56 19 24 19 C24 12.73 24 6.46 24 0 C26.64 0 29.28 0 32 0 C32 14.85 32 29.7 32 45 C29.36 45 26.72 45 24 45 C24 38.73 24 32.46 24 26 C18.72 26 13.44 26 8 26 C8 32.27 8 38.54 8 45 C5.36 45 2.72 45 0 45 C0 30.15 0 15.3 0 0 Z " fill="#B91251" transform="translate(798,783)"/>
<path d="M0 0 C9.57 0 19.14 0 29 0 C29 2.64 29 5.28 29 8 C22.07 8 15.14 8 8 8 C8 11.63 8 15.26 8 19 C13.94 19 19.88 19 26 19 C26 21.31 26 23.62 26 26 C20.06 26 14.12 26 8 26 C8 29.63 8 33.26 8 37 C14.93 37 21.86 37 29 37 C29 39.64 29 42.28 29 45 C19.43 45 9.86 45 0 45 C0 30.15 0 15.3 0 0 Z " fill="#B91251" transform="translate(518,783)"/>
<path d="M0 0 C3.70806596 -0.11674705 7.4156554 -0.18743274 11.125 -0.25 C12.17171875 -0.28351562 13.2184375 -0.31703125 14.296875 -0.3515625 C20.55906915 -0.43083078 24.24373388 -0.20776756 29 4 C32.30245597 7.30245597 32.84597268 10.37918051 33 15 C32.0901833 19.72574692 30.77072219 22.37378822 27 25.4375 C22.6580769 27.69891828 19.65468623 28.11456652 14.8125 28.0625 C13.18248047 28.04896484 13.18248047 28.04896484 11.51953125 28.03515625 C10.68808594 28.02355469 9.85664062 28.01195312 9 28 C9.01160156 29.14339844 9.02320313 30.28679688 9.03515625 31.46484375 C9.04453288 32.95572754 9.05363321 34.44661309 9.0625 35.9375 C9.07087891 36.69224609 9.07925781 37.44699219 9.08789062 38.22460938 C9.09652441 40.14994313 9.05224333 42.07535581 9 44 C8 45 8 45 4.5 45.125 C1 45 1 45 0 44 C-0.0927833 42.61839885 -0.11747043 41.23211962 -0.11352539 39.84741211 C-0.11341209 38.52615578 -0.11341209 38.52615578 -0.11329651 37.1782074 C-0.10555458 35.74227989 -0.10555458 35.74227989 -0.09765625 34.27734375 C-0.0962413 33.30213272 -0.09482635 32.32692169 -0.09336853 31.32215881 C-0.08775133 28.19390857 -0.07519593 25.06572877 -0.0625 21.9375 C-0.05748722 19.82226666 -0.05292393 17.70703219 -0.04882812 15.59179688 C-0.03777631 10.39450704 -0.02102146 5.19725855 0 0 Z M9 7 C9 11.29 9 15.58 9 20 C16.17833412 20.60833895 16.17833412 20.60833895 22.75 18.4375 C24.53239472 14.96183029 23.97865127 12.70489411 23 9 C20.29816945 7.64908472 17.88191794 7.66141942 14.875 7.4375 C12.93625 7.293125 10.9975 7.14875 9 7 Z " fill="#B91251" transform="translate(552,718)"/>
<path d="M0 0 C2.64 0 5.28 0 8 0 C8.31227539 0.88671387 8.62455078 1.77342773 8.94628906 2.68701172 C10.1225123 6.02370718 11.3006321 9.35972094 12.47998047 12.6953125 C12.98690923 14.13027128 13.49311335 15.56548631 13.99853516 17.00097656 C14.7314221 19.08208522 15.46655127 21.162381 16.203125 23.2421875 C16.44212524 23.91787781 16.68112549 24.59356812 16.92736816 25.28973389 C18.57974659 29.92288729 20.36974444 34.47646939 22.32714844 38.98876953 C23 41 23 41 23 45 C20.36 45 17.72 45 15 45 C13.515 40.545 13.515 40.545 12 36 C6.72 36 1.44 36 -4 36 C-4.99 38.97 -5.98 41.94 -7 45 C-9.64 45 -12.28 45 -15 45 C-14.41118916 39.28154898 -12.87044269 34.36634343 -10.83984375 29.00390625 C-10.53051407 28.17036118 -10.22118439 27.3368161 -9.90248108 26.47801208 C-8.92069957 23.83701379 -7.92927183 21.19976071 -6.9375 18.5625 C-6.26693583 16.76391121 -5.59700727 14.96508531 -4.92773438 13.16601562 C-3.29249742 8.77456627 -1.64860417 4.38644769 0 0 Z M3 15 C2.32739649 16.76858691 1.66211605 18.53996016 1 20.3125 C0.62875 21.29863281 0.2575 22.28476562 -0.125 23.30078125 C-1.15418502 26.00271656 -1.15418502 26.00271656 -1 29 C2.3 29 5.6 29 9 29 C8.21824485 24.15311808 6.60155722 19.6233633 5 15 C4.34 15 3.68 15 3 15 Z " fill="#B91251" transform="translate(525,718)"/>
<path d="M0 0 C2.31 0 4.62 0 7 0 C10.60938904 8.432476 13.92306146 16.94752101 17.0769043 25.55786133 C17.82382356 27.59335887 18.57877487 29.62576893 19.33398438 31.65820312 C19.81298581 32.96075895 20.29151957 34.26348688 20.76953125 35.56640625 C21.19854736 36.73115479 21.62756348 37.89590332 22.06958008 39.09594727 C23 42 23 42 23 45 C20.36 45 17.72 45 15 45 C12 39.375 12 39.375 12 36 C4.08 36.495 4.08 36.495 -4 37 C-4.99 39.31 -5.98 41.62 -7 44 C-8 45 -8 45 -11.5625 45.0625 C-12.696875 45.041875 -13.83125 45.02125 -15 45 C-16 43 -16 43 -15.51283264 41.12704468 C-15.22637375 40.36759552 -14.93991486 39.60814636 -14.64477539 38.82568359 C-14.32436783 37.96494232 -14.00396027 37.10420105 -13.67384338 36.21737671 C-13.31870163 35.28712677 -12.96355988 34.35687683 -12.59765625 33.3984375 C-12.24110458 32.44683746 -11.88455292 31.49523743 -11.51719666 30.51480103 C-10.37276773 27.46546107 -9.21776762 24.42024806 -8.0625 21.375 C-7.28641169 19.31276243 -6.51101193 17.25026559 -5.73632812 15.1875 C-3.83220869 10.12196059 -1.91938692 5.05977269 0 0 Z M3 14 C1.35 18.95 -0.3 23.9 -2 29 C1.63 29 5.26 29 9 29 C8.319375 26.40125 8.319375 26.40125 7.625 23.75 C7.36976563 22.77546875 7.11453125 21.8009375 6.8515625 20.796875 C6.10401491 18.34162697 5.22876183 16.24382595 4 14 C3.67 14 3.34 14 3 14 Z " fill="#B91251" transform="translate(649,718)"/>
<path d="M0 0 C3.125 -0.1875 3.125 -0.1875 6 0 C9.27233798 8.03819833 12.36919292 16.14049762 15.42871094 24.26147461 C15.98127084 25.72549553 16.5359979 27.18870016 17.09277344 28.65112305 C17.90515972 30.78517743 18.71110942 32.92156178 19.515625 35.05859375 C19.76556213 35.71170029 20.01549927 36.36480682 20.27301025 37.03770447 C21.32541562 39.85303103 22 41.96503515 22 45 C19.03 45 16.06 45 13 45 C12.34 42.03 11.68 39.06 11 36 C5.72 36 0.44 36 -5 36 C-5.99 38.97 -6.98 41.94 -8 45 C-10.64 45 -13.28 45 -16 45 C-15.41545003 39.55607237 -14.0650928 34.87377673 -12.12890625 29.765625 C-11.84651596 29.00578308 -11.56412567 28.24594116 -11.2731781 27.46307373 C-10.67887751 25.8684982 -10.08117195 24.27518794 -9.48022461 22.68310547 C-8.5610764 20.24622571 -7.65376966 17.80517851 -6.74804688 15.36328125 C-6.16735675 13.80963773 -5.58599975 12.25624327 -5.00390625 10.703125 C-4.73300674 9.97498596 -4.46210724 9.24684692 -4.18299866 8.49664307 C-3.00831403 5.39678534 -1.84771769 2.77157654 0 0 Z M2 15 C1.32739649 16.76858691 0.66211605 18.53996016 0 20.3125 C-0.37125 21.29863281 -0.7425 22.28476562 -1.125 23.30078125 C-2.15418502 26.00271656 -2.15418502 26.00271656 -2 29 C1.3 29 4.6 29 8 29 C7.2884375 26.64875 7.2884375 26.64875 6.5625 24.25 C5.63363411 21.18070403 4.75035741 18.11799003 4 15 C3.34 15 2.68 15 2 15 Z " fill="#B91251" transform="translate(617,783)"/>
<path d="M0 0 C3.27307261 6.13701114 4.00305221 12.79812524 4.9375 19.625 C5.78761702 25.82155612 6.94346255 31.91036895 8.203125 38.03515625 C9.09843013 42.42816463 9.90195687 46.83619721 10.6875 51.25 C10.81890381 51.97743408 10.95030762 52.70486816 11.08569336 53.4543457 C11.59592745 56.34749976 12 59.05560374 12 62 C4.41 62 -3.18 62 -11 62 C-10.58041016 59.51533203 -10.58041016 59.51533203 -10.15234375 56.98046875 C-9.00937169 50.12364164 -7.94392714 43.25542612 -6.88317871 36.38552856 C-1.48427078 1.48427078 -1.48427078 1.48427078 0 0 Z " fill="#BC1D59" transform="translate(712,488)"/>
<path d="M0 0 C4.38805162 2.19402581 7.34717236 4.87337922 10 9 C10.75 12.3125 10.75 12.3125 11 15 C8.03 15 5.06 15 2 15 C1.71125 14.195625 1.4225 13.39125 1.125 12.5625 C0.26737432 9.8673532 0.26737432 9.8673532 -2 9 C-6.6091461 8.49829549 -6.6091461 8.49829549 -10.69995117 10.21679688 C-12.38865556 12.53309675 -12.37333584 13.93118015 -12.36328125 16.78125 C-12.36263672 17.70550781 -12.36199219 18.62976563 -12.36132812 19.58203125 C-12.34521484 20.54496094 -12.32910156 21.50789062 -12.3125 22.5 C-12.31572266 23.46292969 -12.31894531 24.42585937 -12.32226562 25.41796875 C-12.40537178 31.03615946 -12.40537178 31.03615946 -10 36 C-5.18845626 37.25890636 -5.18845626 37.25890636 -0.625 35.75 C1.23276416 33.99137911 1.23276416 33.99137911 2 31 C4.70879335 29.64560332 7.00933268 29.93498549 10 30 C11.14139626 33.42418878 10.94974904 33.84776765 9.4375 36.9375 C7.20504542 41.00536187 5.39604778 43.14903251 1 45 C-4.95884382 45.72872485 -10.12926987 45.87085713 -15.625 43.3125 C-20.38076898 38.68188284 -22.07935152 34.22395239 -22.203125 27.69921875 C-22.22432102 26.02870723 -22.23975868 24.3581146 -22.25 22.6875 C-22.270625 21.85798828 -22.29125 21.02847656 -22.3125 20.17382812 C-22.35124515 14.03756463 -21.65311958 9.08148784 -17.5 4.2578125 C-11.76788303 -0.07113 -7.0400851 -0.79077399 0 0 Z " fill="#B91251" transform="translate(780,783)"/>
<path d="M0 0 C3.3 0 6.6 0 10 0 C10 23.76 10 47.52 10 72 C6.7 72 3.4 72 0 72 C0 48.24 0 24.48 0 0 Z " fill="#FEFBFC" transform="translate(266,329)"/>
<path d="M0 0 C3.7976749 2.93666358 5.69326464 5.79496821 6.875 10.4375 C6.91625 11.283125 6.9575 12.12875 7 13 C1.62329486 13.44071354 1.62329486 13.44071354 -1 13 C-2.04892238 11.36368108 -3.04906703 9.69514137 -4 8 C-7.9245222 7.00103071 -11.14896842 6.61362863 -15 8 C-16.05746722 12.33138573 -16.18340937 16.56575302 -16.1875 21 C-16.19974609 21.69867187 -16.21199219 22.39734375 -16.22460938 23.1171875 C-16.23609957 27.17705736 -15.94287158 30.40057476 -14 34 C-10.83263796 35.58368102 -8.4846985 35.42056706 -5 35 C-4.360625 34.01 -3.72125 33.02 -3.0625 32 C-1 29 -1 29 1.01953125 28.6015625 C3.25 28.625 3.25 28.625 7 29 C6.58726322 34.26239391 5.88050973 37.32372763 2 41 C-3.26005147 43.93349025 -7.1313354 44.55892044 -13 44 C-17.69169564 42.25211339 -20.71406567 39.75535352 -24 36 C-26.73336345 27.79990964 -27.49930271 15.07125601 -24 7 C-21.00571233 2.10025653 -17.89565062 -0.146995 -12.46875 -1.6484375 C-7.99222768 -2.28591694 -4.15480223 -1.78867757 0 0 Z " fill="#B91251" transform="translate(501,719)"/>
<path d="M0 0 C9 0 9 0 11.52709961 1.3828125 C13.81141279 5.44179431 13.59087778 9.29015389 13.56640625 13.875 C13.57570412 15.31721924 13.57570412 15.31721924 13.58518982 16.78857422 C13.59228682 18.81932564 13.58911608 20.85013526 13.57641602 22.88085938 C13.56254743 25.98936878 13.59662601 29.09486975 13.63476562 32.203125 C13.6357168 34.17708407 13.63385809 36.15104691 13.62890625 38.125 C13.64216446 39.05425293 13.65542267 39.98350586 13.66908264 40.94091797 C13.6090129 45.09970359 13.56757778 47.271587 10.96069336 50.6171875 C8 52 8 52 0 52 C0 34.84 0 17.68 0 0 Z " fill="#BB1C58" transform="translate(439,339)"/>
<path d="M0 0 C10.89 0 21.78 0 33 0 C33 2.31 33 4.62 33 7 C32 8 32 8 29.49609375 8.09765625 C27.98208984 8.08025391 27.98208984 8.08025391 26.4375 8.0625 C25.42558594 8.05347656 24.41367187 8.04445313 23.37109375 8.03515625 C22.19740234 8.01775391 22.19740234 8.01775391 21 8 C21.00785522 9.62796509 21.00785522 9.62796509 21.01586914 11.28881836 C21.03391836 15.30117982 21.04543171 19.31353767 21.05493164 23.32592773 C21.05997204 25.06519168 21.0668043 26.80445136 21.07543945 28.54370117 C21.08751792 31.03825937 21.09323108 33.53276173 21.09765625 36.02734375 C21.10281754 36.80963852 21.10797882 37.59193329 21.11329651 38.39793396 C21.11349226 40.26567114 21.06199694 42.13329204 21 44 C20 45 20 45 16.5 45.125 C13 45 13 45 12 44 C11.91144839 41.3337397 11.88475327 38.69352886 11.90234375 36.02734375 C11.9037587 35.22970108 11.90517365 34.43205841 11.90663147 33.61024475 C11.91224684 31.05262565 11.92480188 28.49509282 11.9375 25.9375 C11.94251302 24.20768355 11.94707627 22.47786574 11.95117188 20.74804688 C11.96222125 16.49866447 11.97949614 12.24934688 12 8 C11.21753906 8.01160156 10.43507813 8.02320313 9.62890625 8.03515625 C8.61699219 8.04417969 7.60507812 8.05320312 6.5625 8.0625 C5.55316406 8.07410156 4.54382813 8.08570313 3.50390625 8.09765625 C1 8 1 8 0 7 C0 4.69 0 2.38 0 0 Z " fill="#B91251" transform="translate(604,718)"/>
<path d="M0 0 C2.97 0 5.94 0 9 0 C9 12.21 9 24.42 9 37 C15.6 37 22.2 37 29 37 C29 39.64 29 42.28 29 45 C25.03069011 45.02465881 21.06140966 45.04284023 17.09204102 45.05493164 C15.74079614 45.05997057 14.38955674 45.06680177 13.03833008 45.07543945 C11.09979566 45.08752419 9.161222 45.09269828 7.22265625 45.09765625 C5.47094116 45.10551147 5.47094116 45.10551147 3.68383789 45.11352539 C1 45 1 45 0 44 C-0.0927833 42.61839885 -0.11747043 41.23211962 -0.11352539 39.84741211 C-0.11341209 38.52615578 -0.11341209 38.52615578 -0.11329651 37.1782074 C-0.10555458 35.74227989 -0.10555458 35.74227989 -0.09765625 34.27734375 C-0.0962413 33.30213272 -0.09482635 32.32692169 -0.09336853 31.32215881 C-0.08775133 28.19390857 -0.07519593 25.06572877 -0.0625 21.9375 C-0.05748722 19.82226666 -0.05292393 17.70703219 -0.04882812 15.59179688 C-0.03777631 10.39450393 -0.02050016 5.19726392 0 0 Z " fill="#B91251" transform="translate(676,718)"/>
<path d="M0 0 C2.64 0 5.28 0 8 0 C8 12.21 8 24.42 8 37 C14.5370285 36.96041741 14.5370285 36.96041741 21.07397461 36.90991211 C22.28839233 36.90616577 22.28839233 36.90616577 23.52734375 36.90234375 C24.35999756 36.89710693 25.19265137 36.89187012 26.05053711 36.88647461 C28 37 28 37 29 38 C29 40.31 29 42.62 29 45 C19.43 45 9.86 45 0 45 C0 30.15 0 15.3 0 0 Z " fill="#B91251" transform="translate(569,783)"/>
<path d="M0 0 C2.97 0 5.94 0 9 0 C9.02464455 6.24796254 9.04283343 12.49589703 9.05493164 18.74389648 C9.05997298 20.87118014 9.06680591 22.99846031 9.07543945 25.12573242 C9.08751379 28.17627826 9.09323014 31.22677845 9.09765625 34.27734375 C9.10281754 35.23462875 9.10797882 36.19191376 9.11329651 37.1782074 C9.11337204 38.05904495 9.11344757 38.93988251 9.11352539 39.84741211 C9.115746 40.62684677 9.11796661 41.40628143 9.12025452 42.20933533 C9 44 9 44 8 45 C4.5 45.125 4.5 45.125 1 45 C0 44 0 44 -0.12025452 42.20933533 C-0.11803391 41.42990067 -0.11581329 40.650466 -0.11352539 39.84741211 C-0.11341209 38.52615578 -0.11341209 38.52615578 -0.11329651 37.1782074 C-0.10555458 35.74227989 -0.10555458 35.74227989 -0.09765625 34.27734375 C-0.0962413 33.30213272 -0.09482635 32.32692169 -0.09336853 31.32215881 C-0.08775133 28.19390857 -0.07519593 25.06572877 -0.0625 21.9375 C-0.05748722 19.82226666 -0.05292393 17.70703219 -0.04882812 15.59179688 C-0.03777631 10.39450393 -0.02050016 5.19726392 0 0 Z " fill="#B91251" transform="translate(590,718)"/>
<path d="M0 0 C2.05078125 0.03255208 4.1015625 0.06510417 6.15234375 0.09765625 C6.51563912 3.10781786 6.76397126 5.18066353 6.15234375 8.09765625 C4.15820923 10.59948382 1.89660325 12.45855103 -0.84765625 14.09765625 C-1.50765625 14.09765625 -2.16765625 14.09765625 -2.84765625 14.09765625 C-2.87451563 11.95188988 -2.89398713 9.8060298 -2.91015625 7.66015625 C-2.92175781 6.46519531 -2.93335938 5.27023437 -2.9453125 4.0390625 C-2.81615523 0.14884541 -2.81615523 0.14884541 0 0 Z " fill="#B91251" transform="translate(595.84765625,782.90234375)"/>
<path d="M0 0 C2.97 0 5.94 0 9 0 C9.67354499 1.43429001 10.33859701 2.87257057 11 4.3125 C11.556875 5.51326172 11.556875 5.51326172 12.125 6.73828125 C13 9 13 9 13 12 C10.2421875 12.3046875 10.2421875 12.3046875 7 12 C4.8828125 9.8828125 4.8828125 9.8828125 3.125 7.125 C2.52945313 6.22007812 1.93390625 5.31515625 1.3203125 4.3828125 C0 2 0 2 0 0 Z " fill="#B91251" transform="translate(728,769)"/>
<path d="M0 0 C1.32789969 2.1871289 2.04752686 3.47720456 1.8125 6.0625 C0.89094932 8.26004393 -0.28977078 9.37274686 -2 11 C-1.85957123 9.35369672 -1.71250671 7.70795821 -1.5625 6.0625 C-1.48128906 5.14597656 -1.40007813 4.22945313 -1.31640625 3.28515625 C-1 1 -1 1 0 0 Z " fill="#C74073" transform="translate(712,488)"/>
</svg>
